<svg xmlns="http://www.w3.org/2000/svg" viewBox="0 0 1200 420" width="100%" fill="none">
<defs>
  <radialGradient id="bg" cx="42%" cy="44%" r="70%"><stop offset="0%" stop-color="#04190a"/><stop offset="60%" stop-color="#020c04"/><stop offset="100%" stop-color="#000"/></radialGradient>
  <radialGradient id="vig" cx="50%" cy="50%" r="62%"><stop offset="62%" stop-color="#000" stop-opacity="0"/><stop offset="100%" stop-color="#000" stop-opacity="0.65"/></radialGradient>
  <radialGradient id="core" cx="50%" cy="50%" r="50%"><stop offset="0%" stop-color="#eafff0"/><stop offset="55%" stop-color="#39ff14"/><stop offset="100%" stop-color="#0a3d0a"/></radialGradient>
  <filter id="g" x="-80%" y="-80%" width="260%" height="260%"><feGaussianBlur stdDeviation="1.6" result="b"/><feMerge><feMergeNode in="b"/><feMergeNode in="SourceGraphic"/></feMerge></filter>
  <filter id="soft" x="-90%" y="-90%" width="280%" height="280%"><feGaussianBlur stdDeviation="5" result="b"/><feMerge><feMergeNode in="b"/><feMergeNode in="SourceGraphic"/></feMerge></filter>
  <clipPath id="fr"><rect width="1200" height="420" rx="14"/></clipPath>
  <style>
    .word{font:800 70px 'Courier New',monospace; letter-spacing:5px;}
    .tag{fill:#00ff41; font:600 17px monospace; letter-spacing:3px;}
    .lbl{fill:#3f8f55; font:600 13px monospace; letter-spacing:2px;}
    @keyframes br{0%,100%{opacity:.92}50%{opacity:1}}
    @keyframes scan{0%{transform:translateY(-60px)}100%{transform:translateY(480px)}}
    @keyframes pc{0%,100%{r:5}50%{r:7}}
    .br{animation:br 4s ease-in-out infinite} .scan{animation:scan 7s linear infinite} .pc{animation:pc 2.2s ease-in-out infinite}
  </style>
</defs>
<g clip-path="url(#fr)">
  <rect width="1200" height="420" fill="url(#bg)"/>
  <g><polygon points="0.0,-16.0 13.9,-8.0 13.9,8.0 0.0,16.0 -13.9,8.0 -13.9,-8.0" fill="none" stroke="#00ff41" stroke-width="0.6" opacity="0.05"/><polygon points="180.0,-16.0 193.9,-8.0 193.9,8.0 180.0,16.0 166.1,8.0 166.1,-8.0" fill="none" stroke="#00ff41" stroke-width="0.6" opacity="0.05"/><polygon points="450.0,-16.0 463.9,-8.0 463.9,8.0 450.0,16.0 436.1,8.0 436.1,-8.0" fill="none" stroke="#00ff41" stroke-width="0.6" opacity="0.05"/><polygon points="540.0,-16.0 553.9,-8.0 553.9,8.0 540.0,16.0 526.1,8.0 526.1,-8.0" fill="none" stroke="#00ff41" stroke-width="0.6" opacity="0.05"/><polygon points="630.0,-16.0 643.9,-8.0 643.9,8.0 630.0,16.0 616.1,8.0 616.1,-8.0" fill="none" stroke="#00ff41" stroke-width="0.6" opacity="0.05"/><polygon points="720.0,-16.0 733.9,-8.0 733.9,8.0 720.0,16.0 706.1,8.0 706.1,-8.0" fill="none" stroke="#00ff41" stroke-width="0.6" opacity="0.05"/><polygon points="810.0,-16.0 823.9,-8.0 823.9,8.0 810.0,16.0 796.1,8.0 796.1,-8.0" fill="none" stroke="#00ff41" stroke-width="0.6" opacity="0.05"/><polygon points="900.0,-16.0 913.9,-8.0 913.9,8.0 900.0,16.0 886.1,8.0 886.1,-8.0" fill="none" stroke="#00ff41" stroke-width="0.6" opacity="0.05"/><polygon points="990.0,-16.0 1003.9,-8.0 1003.9,8.0 990.0,16.0 976.1,8.0 976.1,-8.0" fill="none" stroke="#00ff41" stroke-width="0.6" opacity="0.05"/><polygon points="1080.0,-16.0 1093.9,-8.0 1093.9,8.0 1080.0,16.0 1066.1,8.0 1066.1,-8.0" fill="none" stroke="#00ff41" stroke-width="0.6" opacity="0.05"/><polygon points="1170.0,-16.0 1183.9,-8.0 1183.9,8.0 1170.0,16.0 1156.1,8.0 1156.1,-8.0" fill="none" stroke="#00ff41" stroke-width="0.6" opacity="0.05"/><polygon points="135.0,36.0 148.9,44.0 148.9,60.0 135.0,68.0 121.1,60.0 121.1,44.0" fill="none" stroke="#00ff41" stroke-width="0.6" opacity="0.05"/><polygon points="225.0,36.0 238.9,44.0 238.9,60.0 225.0,68.0 211.1,60.0 211.1,44.0" fill="none" stroke="#00ff41" stroke-width="0.6" opacity="0.05"/><polygon points="405.0,36.0 418.9,44.0 418.9,60.0 405.0,68.0 391.1,60.0 391.1,44.0" fill="none" stroke="#00ff41" stroke-width="0.6" opacity="0.05"/><polygon points="585.0,36.0 598.9,44.0 598.9,60.0 585.0,68.0 571.1,60.0 571.1,44.0" fill="none" stroke="#00ff41" stroke-width="0.6" opacity="0.05"/><polygon points="675.0,36.0 688.9,44.0 688.9,60.0 675.0,68.0 661.1,60.0 661.1,44.0" fill="none" stroke="#00ff41" stroke-width="0.6" opacity="0.05"/><polygon points="765.0,36.0 778.9,44.0 778.9,60.0 765.0,68.0 751.1,60.0 751.1,44.0" fill="none" stroke="#00ff41" stroke-width="0.6" opacity="0.05"/><polygon points="855.0,36.0 868.9,44.0 868.9,60.0 855.0,68.0 841.1,60.0 841.1,44.0" fill="none" stroke="#00ff41" stroke-width="0.6" opacity="0.05"/><polygon points="945.0,36.0 958.9,44.0 958.9,60.0 945.0,68.0 931.1,60.0 931.1,44.0" fill="none" stroke="#00ff41" stroke-width="0.6" opacity="0.05"/><polygon points="1035.0,36.0 1048.9,44.0 1048.9,60.0 1035.0,68.0 1021.1,60.0 1021.1,44.0" fill="none" stroke="#00ff41" stroke-width="0.6" opacity="0.05"/><polygon points="1125.0,36.0 1138.9,44.0 1138.9,60.0 1125.0,68.0 1111.1,60.0 1111.1,44.0" fill="none" stroke="#00ff41" stroke-width="0.6" opacity="0.05"/><polygon points="1215.0,36.0 1228.9,44.0 1228.9,60.0 1215.0,68.0 1201.1,60.0 1201.1,44.0" fill="none" stroke="#00ff41" stroke-width="0.6" opacity="0.05"/><polygon points="0.0,88.0 13.9,96.0 13.9,112.0 0.0,120.0 -13.9,112.0 -13.9,96.0" fill="none" stroke="#00ff41" stroke-width="0.6" opacity="0.05"/><polygon points="180.0,88.0 193.9,96.0 193.9,112.0 180.0,120.0 166.1,112.0 166.1,96.0" fill="none" stroke="#00ff41" stroke-width="0.6" opacity="0.05"/><polygon points="630.0,88.0 643.9,96.0 643.9,112.0 630.0,120.0 616.1,112.0 616.1,96.0" fill="none" stroke="#00ff41" stroke-width="0.6" opacity="0.05"/><polygon points="720.0,88.0 733.9,96.0 733.9,112.0 720.0,120.0 706.1,112.0 706.1,96.0" fill="none" stroke="#00ff41" stroke-width="0.6" opacity="0.05"/><polygon points="810.0,88.0 823.9,96.0 823.9,112.0 810.0,120.0 796.1,112.0 796.1,96.0" fill="none" stroke="#00ff41" stroke-width="0.6" opacity="0.05"/><polygon points="900.0,88.0 913.9,96.0 913.9,112.0 900.0,120.0 886.1,112.0 886.1,96.0" fill="none" stroke="#00ff41" stroke-width="0.6" opacity="0.05"/><polygon points="990.0,88.0 1003.9,96.0 1003.9,112.0 990.0,120.0 976.1,112.0 976.1,96.0" fill="none" stroke="#00ff41" stroke-width="0.6" opacity="0.05"/><polygon points="1080.0,88.0 1093.9,96.0 1093.9,112.0 1080.0,120.0 1066.1,112.0 1066.1,96.0" fill="none" stroke="#00ff41" stroke-width="0.6" opacity="0.05"/><polygon points="1170.0,88.0 1183.9,96.0 1183.9,112.0 1170.0,120.0 1156.1,112.0 1156.1,96.0" fill="none" stroke="#00ff41" stroke-width="0.6" opacity="0.05"/><polygon points="135.0,140.0 148.9,148.0 148.9,164.0 135.0,172.0 121.1,164.0 121.1,148.0" fill="none" stroke="#00ff41" stroke-width="0.6" opacity="0.05"/><polygon points="405.0,140.0 418.9,148.0 418.9,164.0 405.0,172.0 391.1,164.0 391.1,148.0" fill="none" stroke="#00ff41" stroke-width="0.6" opacity="0.05"/><polygon points="495.0,140.0 508.9,148.0 508.9,164.0 495.0,172.0 481.1,164.0 481.1,148.0" fill="none" stroke="#00ff41" stroke-width="0.6" opacity="0.05"/><polygon points="585.0,140.0 598.9,148.0 598.9,164.0 585.0,172.0 571.1,164.0 571.1,148.0" fill="none" stroke="#00ff41" stroke-width="0.6" opacity="0.05"/><polygon points="675.0,140.0 688.9,148.0 688.9,164.0 675.0,172.0 661.1,164.0 661.1,148.0" fill="none" stroke="#00ff41" stroke-width="0.6" opacity="0.05"/><polygon points="765.0,140.0 778.9,148.0 778.9,164.0 765.0,172.0 751.1,164.0 751.1,148.0" fill="none" stroke="#00ff41" stroke-width="0.6" opacity="0.05"/><polygon points="855.0,140.0 868.9,148.0 868.9,164.0 855.0,172.0 841.1,164.0 841.1,148.0" fill="none" stroke="#00ff41" stroke-width="0.6" opacity="0.05"/><polygon points="945.0,140.0 958.9,148.0 958.9,164.0 945.0,172.0 931.1,164.0 931.1,148.0" fill="none" stroke="#00ff41" stroke-width="0.6" opacity="0.05"/><polygon points="1035.0,140.0 1048.9,148.0 1048.9,164.0 1035.0,172.0 1021.1,164.0 1021.1,148.0" fill="none" stroke="#00ff41" stroke-width="0.6" opacity="0.05"/><polygon points="1125.0,140.0 1138.9,148.0 1138.9,164.0 1125.0,172.0 1111.1,164.0 1111.1,148.0" fill="none" stroke="#00ff41" stroke-width="0.6" opacity="0.05"/><polygon points="1215.0,140.0 1228.9,148.0 1228.9,164.0 1215.0,172.0 1201.1,164.0 1201.1,148.0" fill="none" stroke="#00ff41" stroke-width="0.6" opacity="0.05"/><polygon points="90.0,192.0 103.9,200.0 103.9,216.0 90.0,224.0 76.1,216.0 76.1,200.0" fill="none" stroke="#00ff41" stroke-width="0.6" opacity="0.05"/><polygon points="540.0,192.0 553.9,200.0 553.9,216.0 540.0,224.0 526.1,216.0 526.1,200.0" fill="none" stroke="#00ff41" stroke-width="0.6" opacity="0.05"/><polygon points="630.0,192.0 643.9,200.0 643.9,216.0 630.0,224.0 616.1,216.0 616.1,200.0" fill="none" stroke="#00ff41" stroke-width="0.6" opacity="0.05"/><polygon points="720.0,192.0 733.9,200.0 733.9,216.0 720.0,224.0 706.1,216.0 706.1,200.0" fill="none" stroke="#00ff41" stroke-width="0.6" opacity="0.05"/><polygon points="810.0,192.0 823.9,200.0 823.9,216.0 810.0,224.0 796.1,216.0 796.1,200.0" fill="none" stroke="#00ff41" stroke-width="0.6" opacity="0.05"/><polygon points="900.0,192.0 913.9,200.0 913.9,216.0 900.0,224.0 886.1,216.0 886.1,200.0" fill="none" stroke="#00ff41" stroke-width="0.6" opacity="0.05"/><polygon points="990.0,192.0 1003.9,200.0 1003.9,216.0 990.0,224.0 976.1,216.0 976.1,200.0" fill="none" stroke="#00ff41" stroke-width="0.6" opacity="0.05"/><polygon points="1080.0,192.0 1093.9,200.0 1093.9,216.0 1080.0,224.0 1066.1,216.0 1066.1,200.0" fill="none" stroke="#00ff41" stroke-width="0.6" opacity="0.05"/><polygon points="1170.0,192.0 1183.9,200.0 1183.9,216.0 1170.0,224.0 1156.1,216.0 1156.1,200.0" fill="none" stroke="#00ff41" stroke-width="0.6" opacity="0.05"/><polygon points="135.0,244.0 148.9,252.0 148.9,268.0 135.0,276.0 121.1,268.0 121.1,252.0" fill="none" stroke="#00ff41" stroke-width="0.6" opacity="0.05"/><polygon points="405.0,244.0 418.9,252.0 418.9,268.0 405.0,276.0 391.1,268.0 391.1,252.0" fill="none" stroke="#00ff41" stroke-width="0.6" opacity="0.05"/><polygon points="495.0,244.0 508.9,252.0 508.9,268.0 495.0,276.0 481.1,268.0 481.1,252.0" fill="none" stroke="#00ff41" stroke-width="0.6" opacity="0.05"/><polygon points="585.0,244.0 598.9,252.0 598.9,268.0 585.0,276.0 571.1,268.0 571.1,252.0" fill="none" stroke="#00ff41" stroke-width="0.6" opacity="0.05"/><polygon points="675.0,244.0 688.9,252.0 688.9,268.0 675.0,276.0 661.1,268.0 661.1,252.0" fill="none" stroke="#00ff41" stroke-width="0.6" opacity="0.05"/><polygon points="765.0,244.0 778.9,252.0 778.9,268.0 765.0,276.0 751.1,268.0 751.1,252.0" fill="none" stroke="#00ff41" stroke-width="0.6" opacity="0.05"/><polygon points="855.0,244.0 868.9,252.0 868.9,268.0 855.0,276.0 841.1,268.0 841.1,252.0" fill="none" stroke="#00ff41" stroke-width="0.6" opacity="0.05"/><polygon points="945.0,244.0 958.9,252.0 958.9,268.0 945.0,276.0 931.1,268.0 931.1,252.0" fill="none" stroke="#00ff41" stroke-width="0.6" opacity="0.05"/><polygon points="1035.0,244.0 1048.9,252.0 1048.9,268.0 1035.0,276.0 1021.1,268.0 1021.1,252.0" fill="none" stroke="#00ff41" stroke-width="0.6" opacity="0.05"/><polygon points="1125.0,244.0 1138.9,252.0 1138.9,268.0 1125.0,276.0 1111.1,268.0 1111.1,252.0" fill="none" stroke="#00ff41" stroke-width="0.6" opacity="0.05"/><polygon points="1215.0,244.0 1228.9,252.0 1228.9,268.0 1215.0,276.0 1201.1,268.0 1201.1,252.0" fill="none" stroke="#00ff41" stroke-width="0.6" opacity="0.05"/><polygon points="0.0,296.0 13.9,304.0 13.9,320.0 0.0,328.0 -13.9,320.0 -13.9,304.0" fill="none" stroke="#00ff41" stroke-width="0.6" opacity="0.05"/><polygon points="180.0,296.0 193.9,304.0 193.9,320.0 180.0,328.0 166.1,320.0 166.1,304.0" fill="none" stroke="#00ff41" stroke-width="0.6" opacity="0.05"/><polygon points="360.0,296.0 373.9,304.0 373.9,320.0 360.0,328.0 346.1,320.0 346.1,304.0" fill="none" stroke="#00ff41" stroke-width="0.6" opacity="0.05"/><polygon points="540.0,296.0 553.9,304.0 553.9,320.0 540.0,328.0 526.1,320.0 526.1,304.0" fill="none" stroke="#00ff41" stroke-width="0.6" opacity="0.05"/><polygon points="630.0,296.0 643.9,304.0 643.9,320.0 630.0,328.0 616.1,320.0 616.1,304.0" fill="none" stroke="#00ff41" stroke-width="0.6" opacity="0.05"/><polygon points="720.0,296.0 733.9,304.0 733.9,320.0 720.0,328.0 706.1,320.0 706.1,304.0" fill="none" stroke="#00ff41" stroke-width="0.6" opacity="0.05"/><polygon points="810.0,296.0 823.9,304.0 823.9,320.0 810.0,328.0 796.1,320.0 796.1,304.0" fill="none" stroke="#00ff41" stroke-width="0.6" opacity="0.05"/><polygon points="900.0,296.0 913.9,304.0 913.9,320.0 900.0,328.0 886.1,320.0 886.1,304.0" fill="none" stroke="#00ff41" stroke-width="0.6" opacity="0.05"/><polygon points="990.0,296.0 1003.9,304.0 1003.9,320.0 990.0,328.0 976.1,320.0 976.1,304.0" fill="none" stroke="#00ff41" stroke-width="0.6" opacity="0.05"/><polygon points="1080.0,296.0 1093.9,304.0 1093.9,320.0 1080.0,328.0 1066.1,320.0 1066.1,304.0" fill="none" stroke="#00ff41" stroke-width="0.6" opacity="0.05"/><polygon points="1170.0,296.0 1183.9,304.0 1183.9,320.0 1170.0,328.0 1156.1,320.0 1156.1,304.0" fill="none" stroke="#00ff41" stroke-width="0.6" opacity="0.05"/><polygon points="45.0,348.0 58.9,356.0 58.9,372.0 45.0,380.0 31.1,372.0 31.1,356.0" fill="none" stroke="#00ff41" stroke-width="0.6" opacity="0.05"/><polygon points="585.0,348.0 598.9,356.0 598.9,372.0 585.0,380.0 571.1,372.0 571.1,356.0" fill="none" stroke="#00ff41" stroke-width="0.6" opacity="0.05"/><polygon points="675.0,348.0 688.9,356.0 688.9,372.0 675.0,380.0 661.1,372.0 661.1,356.0" fill="none" stroke="#00ff41" stroke-width="0.6" opacity="0.05"/><polygon points="765.0,348.0 778.9,356.0 778.9,372.0 765.0,380.0 751.1,372.0 751.1,356.0" fill="none" stroke="#00ff41" stroke-width="0.6" opacity="0.05"/><polygon points="855.0,348.0 868.9,356.0 868.9,372.0 855.0,380.0 841.1,372.0 841.1,356.0" fill="none" stroke="#00ff41" stroke-width="0.6" opacity="0.05"/><polygon points="945.0,348.0 958.9,356.0 958.9,372.0 945.0,380.0 931.1,372.0 931.1,356.0" fill="none" stroke="#00ff41" stroke-width="0.6" opacity="0.05"/><polygon points="1035.0,348.0 1048.9,356.0 1048.9,372.0 1035.0,380.0 1021.1,372.0 1021.1,356.0" fill="none" stroke="#00ff41" stroke-width="0.6" opacity="0.05"/><polygon points="1125.0,348.0 1138.9,356.0 1138.9,372.0 1125.0,380.0 1111.1,372.0 1111.1,356.0" fill="none" stroke="#00ff41" stroke-width="0.6" opacity="0.05"/><polygon points="1215.0,348.0 1228.9,356.0 1228.9,372.0 1215.0,380.0 1201.1,372.0 1201.1,356.0" fill="none" stroke="#00ff41" stroke-width="0.6" opacity="0.05"/><polygon points="270.0,400.0 283.9,408.0 283.9,424.0 270.0,432.0 256.1,424.0 256.1,408.0" fill="none" stroke="#00ff41" stroke-width="0.6" opacity="0.05"/><polygon points="630.0,400.0 643.9,408.0 643.9,424.0 630.0,432.0 616.1,424.0 616.1,408.0" fill="none" stroke="#00ff41" stroke-width="0.6" opacity="0.05"/><polygon points="720.0,400.0 733.9,408.0 733.9,424.0 720.0,432.0 706.1,424.0 706.1,408.0" fill="none" stroke="#00ff41" stroke-width="0.6" opacity="0.05"/><polygon points="810.0,400.0 823.9,408.0 823.9,424.0 810.0,432.0 796.1,424.0 796.1,408.0" fill="none" stroke="#00ff41" stroke-width="0.6" opacity="0.05"/><polygon points="900.0,400.0 913.9,408.0 913.9,424.0 900.0,432.0 886.1,424.0 886.1,408.0" fill="none" stroke="#00ff41" stroke-width="0.6" opacity="0.05"/><polygon points="990.0,400.0 1003.9,408.0 1003.9,424.0 990.0,432.0 976.1,424.0 976.1,408.0" fill="none" stroke="#00ff41" stroke-width="0.6" opacity="0.05"/><polygon points="1080.0,400.0 1093.9,408.0 1093.9,424.0 1080.0,432.0 1066.1,424.0 1066.1,408.0" fill="none" stroke="#00ff41" stroke-width="0.6" opacity="0.05"/><polygon points="1170.0,400.0 1183.9,408.0 1183.9,424.0 1170.0,432.0 1156.1,424.0 1156.1,408.0" fill="none" stroke="#00ff41" stroke-width="0.6" opacity="0.05"/><polygon points="225.0,452.0 238.9,460.0 238.9,476.0 225.0,484.0 211.1,476.0 211.1,460.0" fill="none" stroke="#00ff41" stroke-width="0.6" opacity="0.05"/><polygon points="495.0,452.0 508.9,460.0 508.9,476.0 495.0,484.0 481.1,476.0 481.1,460.0" fill="none" stroke="#00ff41" stroke-width="0.6" opacity="0.05"/><polygon points="585.0,452.0 598.9,460.0 598.9,476.0 585.0,484.0 571.1,476.0 571.1,460.0" fill="none" stroke="#00ff41" stroke-width="0.6" opacity="0.05"/><polygon points="675.0,452.0 688.9,460.0 688.9,476.0 675.0,484.0 661.1,476.0 661.1,460.0" fill="none" stroke="#00ff41" stroke-width="0.6" opacity="0.05"/><polygon points="765.0,452.0 778.9,460.0 778.9,476.0 765.0,484.0 751.1,476.0 751.1,460.0" fill="none" stroke="#00ff41" stroke-width="0.6" opacity="0.05"/><polygon points="855.0,452.0 868.9,460.0 868.9,476.0 855.0,484.0 841.1,476.0 841.1,460.0" fill="none" stroke="#00ff41" stroke-width="0.6" opacity="0.05"/><polygon points="945.0,452.0 958.9,460.0 958.9,476.0 945.0,484.0 931.1,476.0 931.1,460.0" fill="none" stroke="#00ff41" stroke-width="0.6" opacity="0.05"/><polygon points="1035.0,452.0 1048.9,460.0 1048.9,476.0 1035.0,484.0 1021.1,476.0 1021.1,460.0" fill="none" stroke="#00ff41" stroke-width="0.6" opacity="0.05"/><polygon points="1125.0,452.0 1138.9,460.0 1138.9,476.0 1125.0,484.0 1111.1,476.0 1111.1,460.0" fill="none" stroke="#00ff41" stroke-width="0.6" opacity="0.05"/><polygon points="1215.0,452.0 1228.9,460.0 1228.9,476.0 1215.0,484.0 1201.1,476.0 1201.1,460.0" fill="none" stroke="#00ff41" stroke-width="0.6" opacity="0.05"/></g>

  <!-- connection graph -->
  <line x1="880" y1="212" x2="880" y2="96" stroke="#00ff41" stroke-width="1.3" opacity="0.28"/><line x1="880" y1="212" x2="880" y2="96" stroke="#00ff41" stroke-width="1.6" opacity="0.5" stroke-dasharray="5 9">
      <animate attributeName="stroke-dashoffset" values="0;-56" dur="1.4s" begin="-0.0s" repeatCount="indefinite"/></line><line x1="880" y1="212" x2="1058" y2="212" stroke="#00ff41" stroke-width="1.3" opacity="0.28"/><line x1="880" y1="212" x2="1058" y2="212" stroke="#33d6ff" stroke-width="1.6" opacity="0.5" stroke-dasharray="5 9">
      <animate attributeName="stroke-dashoffset" values="0;-56" dur="1.4s" begin="-0.9s" repeatCount="indefinite"/></line><line x1="880" y1="212" x2="880" y2="328" stroke="#00ff41" stroke-width="1.3" opacity="0.28"/><line x1="880" y1="212" x2="880" y2="328" stroke="#ffd43b" stroke-width="1.6" opacity="0.5" stroke-dasharray="5 9">
      <animate attributeName="stroke-dashoffset" values="0;-56" dur="1.4s" begin="-1.8s" repeatCount="indefinite"/></line><line x1="880" y1="212" x2="702" y2="212" stroke="#00ff41" stroke-width="1.3" opacity="0.28"/><line x1="880" y1="212" x2="702" y2="212" stroke="#ff9b2f" stroke-width="1.6" opacity="0.5" stroke-dasharray="5 9">
      <animate attributeName="stroke-dashoffset" values="0;-56" dur="1.4s" begin="-2.7s" repeatCount="indefinite"/></line>
  <g>
      <polygon points="880.0,54.0 916.4,75.0 916.4,117.0 880.0,138.0 843.6,117.0 843.6,75.0" fill="#0c130c" fill-opacity="0.85" stroke="#00ff41" stroke-width="1.8">
        <animate attributeName="stroke-opacity" values="0.55;1;0.55" dur="2.6s" repeatCount="indefinite"/></polygon>
      <g transform="translate(880,96)" filter="url(#g)"><circle cx="0" cy="0" r="12" stroke="#00ff41" stroke-width="2.2" fill="none" stroke-linecap="round" stroke-linejoin="round"/><ellipse cx="0" cy="0" rx="5" ry="12" stroke="#00ff41" stroke-width="2.2" fill="none" stroke-linecap="round" stroke-linejoin="round"/><line x1="-12" y1="0" x2="12" y2="0" stroke="#00ff41" stroke-width="2.2" fill="none" stroke-linecap="round" stroke-linejoin="round"/><line x1="-10" y1="-6" x2="10" y2="-6" stroke="#00ff41" stroke-width="2.2" fill="none" stroke-linecap="round" stroke-linejoin="round"/><line x1="-10" y1="6" x2="10" y2="6" stroke="#00ff41" stroke-width="2.2" fill="none" stroke-linecap="round" stroke-linejoin="round"/></g>
      <text x="880" y="38" text-anchor="middle" fill="#00ff41" style="font:700 13px monospace; letter-spacing:1px;">WEB</text>
    </g><g>
      <polygon points="1058.0,170.0 1094.4,191.0 1094.4,233.0 1058.0,254.0 1021.6,233.0 1021.6,191.0" fill="#0c130c" fill-opacity="0.85" stroke="#33d6ff" stroke-width="1.8">
        <animate attributeName="stroke-opacity" values="0.55;1;0.55" dur="2.6s" repeatCount="indefinite"/></polygon>
      <g transform="translate(1058,212)" filter="url(#g)"><rect x="-8" y="-13" width="16" height="26" rx="3" stroke="#33d6ff" stroke-width="2.2" fill="none" stroke-linecap="round" stroke-linejoin="round"/><line x1="-2.5" y1="8.5" x2="2.5" y2="8.5" stroke="#33d6ff" stroke-width="2.2" fill="none" stroke-linecap="round" stroke-linejoin="round"/></g>
      <text x="1116" y="216" text-anchor="start" fill="#33d6ff" style="font:700 13px monospace; letter-spacing:1px;">iOS</text>
    </g><g>
      <polygon points="880.0,286.0 916.4,307.0 916.4,349.0 880.0,370.0 843.6,349.0 843.6,307.0" fill="#0c130c" fill-opacity="0.85" stroke="#ffd43b" stroke-width="1.8">
        <animate attributeName="stroke-opacity" values="0.55;1;0.55" dur="2.6s" repeatCount="indefinite"/></polygon>
      <g transform="translate(880,328)" filter="url(#g)"><path d="M-10,-2 A10,10 0 0 1 10,-2 Z" stroke="#ffd43b" stroke-width="2.2" fill="none" stroke-linecap="round" stroke-linejoin="round"/><line x1="-7" y1="-9" x2="-9" y2="-13" stroke="#ffd43b" stroke-width="2.2" fill="none" stroke-linecap="round" stroke-linejoin="round"/><line x1="7" y1="-9" x2="9" y2="-13" stroke="#ffd43b" stroke-width="2.2" fill="none" stroke-linecap="round" stroke-linejoin="round"/><circle cx="-4" cy="-4" r="1.3" fill="#ffd43b" stroke="none"/><circle cx="4" cy="-4" r="1.3" fill="#ffd43b" stroke="none"/><rect x="-10" y="0" width="20" height="11" rx="3" stroke="#ffd43b" stroke-width="2.2" fill="none" stroke-linecap="round" stroke-linejoin="round"/></g>
      <text x="880" y="390" text-anchor="middle" fill="#ffd43b" style="font:700 13px monospace; letter-spacing:1px;">ANDROID</text>
    </g><g>
      <polygon points="702.0,170.0 738.4,191.0 738.4,233.0 702.0,254.0 665.6,233.0 665.6,191.0" fill="#0c130c" fill-opacity="0.85" stroke="#ff9b2f" stroke-width="1.8">
        <animate attributeName="stroke-opacity" values="0.55;1;0.55" dur="2.6s" repeatCount="indefinite"/></polygon>
      <g transform="translate(702,212)" filter="url(#g)"><rect x="-13" y="-11" width="26" height="17" rx="2" stroke="#ff9b2f" stroke-width="2.2" fill="none" stroke-linecap="round" stroke-linejoin="round"/><line x1="0" y1="6" x2="0" y2="11" stroke="#ff9b2f" stroke-width="2.2" fill="none" stroke-linecap="round" stroke-linejoin="round"/><line x1="-7" y1="11" x2="7" y2="11" stroke="#ff9b2f" stroke-width="2.2" fill="none" stroke-linecap="round" stroke-linejoin="round"/></g>
      <text x="644" y="216" text-anchor="end" fill="#ff9b2f" style="font:700 13px monospace; letter-spacing:1px;">DESKTOP</text>
    </g>
  <circle r="3.6" fill="#eafff0">
      <animate attributeName="cx" values="880;880" dur="1.8s" begin="-0.0s" repeatCount="indefinite"/>
      <animate attributeName="cy" values="212;96" dur="1.8s" begin="-0.0s" repeatCount="indefinite"/>
      <animate attributeName="opacity" values="0;1;1;0" dur="1.8s" begin="-0.0s" repeatCount="indefinite"/></circle><circle r="3.6" fill="#eafff0">
      <animate attributeName="cx" values="880;1058" dur="1.8s" begin="-0.9s" repeatCount="indefinite"/>
      <animate attributeName="cy" values="212;212" dur="1.8s" begin="-0.9s" repeatCount="indefinite"/>
      <animate attributeName="opacity" values="0;1;1;0" dur="1.8s" begin="-0.9s" repeatCount="indefinite"/></circle><circle r="3.6" fill="#eafff0">
      <animate attributeName="cx" values="880;880" dur="1.8s" begin="-1.8s" repeatCount="indefinite"/>
      <animate attributeName="cy" values="212;328" dur="1.8s" begin="-1.8s" repeatCount="indefinite"/>
      <animate attributeName="opacity" values="0;1;1;0" dur="1.8s" begin="-1.8s" repeatCount="indefinite"/></circle><circle r="3.6" fill="#eafff0">
      <animate attributeName="cx" values="880;702" dur="1.8s" begin="-2.7s" repeatCount="indefinite"/>
      <animate attributeName="cy" values="212;212" dur="1.8s" begin="-2.7s" repeatCount="indefinite"/>
      <animate attributeName="opacity" values="0;1;1;0" dur="1.8s" begin="-2.7s" repeatCount="indefinite"/></circle>
  <!-- center codebase node -->
  <g filter="url(#soft)">
    <polygon points="880.0,158.0 926.8,185.0 926.8,239.0 880.0,266.0 833.2,239.0 833.2,185.0" fill="#08120a" stroke="#39ff14" stroke-width="2.2"/>
    <polygon points="880.0,166.0 919.8,189.0 919.8,235.0 880.0,258.0 840.2,235.0 840.2,189.0" fill="none" stroke="#00ff41" stroke-width="0.9" opacity="0.4"/>
    <text x="880" y="214" text-anchor="middle" class="br" fill="#eafff0" style="font:800 30px 'Courier New',monospace;">{ }</text>
  </g>
  <text x="880" y="284" text-anchor="middle" fill="#39ff14" style="font:700 12px monospace; letter-spacing:3px;">CODEBASE</text>

  <!-- wordmark (clean) -->
  <g transform="translate(70,170)" filter="url(#soft)" class="br">
    <text class="word" x="3" y="4" fill="#052706">ZERRATUN</text>
    <text class="word" fill="#00ff41">ZERRA<tspan fill="#eafff0">TUN</tspan></text>
  </g>
  <g transform="translate(74,224)"><text class="tag">&gt; cross-platform engineer // 19Admin96</text></g>
  <g transform="translate(74,254)"><text class="lbl">$ deploy --target=web,ios,android,desktop --from=1</text></g>
  <g transform="translate(74,292)">
    <text class="lbl" y="-6">ONE CODEBASE → EVERY PLATFORM</text>
    <rect width="420" height="6" rx="3" fill="#0a2a0a"/>
    <rect width="0" height="6" rx="3" fill="#39ff14"><animate attributeName="width" values="0;420;420" keyTimes="0;0.6;1" dur="4.5s" repeatCount="indefinite"/></rect>
  </g>

  <!-- overlays -->
  <rect width="1200" height="420" fill="url(#vig)"/>
  <rect class="scan" x="0" width="1200" height="50" fill="#00ff41" opacity="0.04"/>
  <rect x="1" y="1" width="1198" height="418" rx="14" fill="none" stroke="#00ff41" stroke-width="1.5" opacity="0.5"/>
  <g stroke="#00ff41" stroke-width="2.5" fill="none">
    <path d="M18 50 L18 18 L50 18"/><path d="M1150 18 L1182 18 L1182 50"/>
    <path d="M18 370 L18 402 L50 402"/><path d="M1150 402 L1182 402 L1182 370"/>
  </g>
</g>
</svg>